PathFileType	4	(X/Y/Z)	/Users/itak/Documents/Research/Walk-IL/dataset/trc/00182_00008.trc
DataRate	CameraRate	NumFrames	NumMarkers	Units	OrigDataRate	OrigDataStartFrame	OrigNumFrames
100.000000	100.000000	4	53	mm	100.000000	99	796
Frame#	Time	RPSI			LPSI			L3			STRN			T10			C7			CLAV			RBAK			LBAK			LSHO			LUPA			LAEL			LAOL			LWTS			LWPS			LFRA			LIFD			LHPS			LHTS			RSHO			RUPA			RAEL			RAOL			RWTS			RWPS			RFRA			RIFD			RHTS			RHPS			RBHD			LFHD			RFHD			LBHD			LHIP			RHIP			RASI			LASI			LKNE			LTHI			LANK			LTIP			LTOE			LMT1			LMT5			LHEE			RKNE			RTHI			RANK			RTIP			RTOE			RMT1			RMT5			RHEE			
		X1	Y1	Z1	X2	Y2	Z2	X3	Y3	Z3	X4	Y4	Z4	X5	Y5	Z5	X6	Y6	Z6	X7	Y7	Z7	X8	Y8	Z8	X9	Y9	Z9	X10	Y10	Z10	X11	Y11	Z11	X12	Y12	Z12	X13	Y13	Z13	X14	Y14	Z14	X15	Y15	Z15	X16	Y16	Z16	X17	Y17	Z17	X18	Y18	Z18	X19	Y19	Z19	X20	Y20	Z20	X21	Y21	Z21	X22	Y22	Z22	X23	Y23	Z23	X24	Y24	Z24	X25	Y25	Z25	X26	Y26	Z26	X27	Y27	Z27	X28	Y28	Z28	X29	Y29	Z29	X30	Y30	Z30	X31	Y31	Z31	X32	Y32	Z32	X33	Y33	Z33	X34	Y34	Z34	X35	Y35	Z35	X36	Y36	Z36	X37	Y37	Z37	X38	Y38	Z38	X39	Y39	Z39	X40	Y40	Z40	X41	Y41	Z41	X42	Y42	Z42	X43	Y43	Z43	X44	Y44	Z44	X45	Y45	Z45	X46	Y46	Z46	X47	Y47	Z47	X48	Y48	Z48	X49	Y49	Z49	X50	Y50	Z50	X51	Y51	Z51	X52	Y52	Z52	X53	Y53	Z53	

100	0.99	27.96221542358398	1036.453857421875	1415.459106445312	6.305164337158203	1038.581909179688	1295.622192382812	20.80904769897461	1075.916137695312	1360.602661132812	299.4763488769531	1259.073364257812	1312.4755859375	3.341512203216553	1242.850830078125	1362.979858398438	98.41561889648438	1501.999877929688	1329.034545898438	283.4223937988281	1376.040161132812	1302.2373046875	31.38528823852539	1339.271850585938	1455.699340820312	69.93502044677734	1475.641357421875	1233.490844726562	129.2902984619141	1450.703369140625	1143.368041992188	63.06291961669922	1323.188110351562	1085.912719726562	36.57138061523438	1108.5673828125	1076.932495117188	17.7900276184082	1097.091674804688	1164.51708984375	124.8938751220703	866.3848266601562	1069.738525390625	30.97564506530762	853.96337890625	1063.2265625	31.16543388366699	997.7235107421875	1062.397705078125	130.2097930908203	682.5037231445312	1096.364501953125	46.39260101318359	781.7462768554688	1062.988647460938	118.0284729003906	786.2872924804688	1049.746459960938	189.8957214355469	1479.191284179688	1496.862426757812	174.3123931884766	1419.949829101562	1572.200317382812	131.4065246582031	1144.322265625	1655.6904296875	106.5065155029297	1128.261840820312	1562.921630859375	229.3593444824219	896.5385131835938	1640.543579101562	163.4782104492188	897.3602905273438	1700.36181640625	149.1300659179688	1071.461303710938	1677.38134765625	206.3950653076172	707.8755493164062	1629.548217773438	240.7590637207031	799.3866577148438	1653.546508789062	177.4375	811.1964721679688	1701.751831054688	220.7285919189453	1660.147338867188	1384.98583984375	292.963623046875	1676.947631835938	1180.154052734375	363.8161010742188	1683.863525390625	1288.364013671875	139.5193786621094	1660.228515625	1273.901000976562	88.11550140380859	979.7216186523438	1157.236572265625	197.1578826904297	989.934814453125	1514.921264648438	271.5792236328125	1013.893798828125	1450.812377929688	220.0376586914062	1013.686645507812	1199.245239257812	316.8916931152344	522.2327880859375	1121.593017578125	241.0478668212891	648.5008544921875	1114.678955078125	413.6963806152344	53.32419586181641	1105.169921875	357.3354187011719	293.5800476074219	1098.723754882812	599.160888671875	139.2900085449219	1036.123168945312	581.4129028320312	119.8641357421875	1099.205200195312	489.9155883789062	81.84610748291016	1025.281616210938	399.4116821289062	42.01750183105469	1186.924438476562	113.2522048950195	498.5445251464844	1488.4580078125	216.8588562011719	755.8938598632812	1509.857788085938	-96.64859008789062	42.74071884155273	1493.920288085938	90.72175598144531	376.9022521972656	1473.861206054688	126.5733795166016	45.61244201660156	1464.521118164062	73.82328796386719	47.43635940551758	1419.96240234375	14.35276222229004	38.07441711425781	1536.384033203125	-145.85693359375	46.3552360534668	1423.212890625	
101	1	34.18223190307617	1034.612548828125	1413.185424804688	12.43019580841064	1036.4365234375	1293.373901367188	26.84818840026855	1073.747436523438	1358.34716796875	305.3569946289062	1257.257934570312	1309.084838867188	9.348337173461914	1240.934692382812	1360.637329101562	104.2284317016602	1500.100463867188	1325.942260742188	289.2467346191406	1374.208129882812	1298.646118164062	37.59423446655273	1337.52783203125	1453.1435546875	75.38273620605469	1473.578735351562	1230.54345703125	134.3825531005859	1448.434814453125	1140.2529296875	67.70833587646484	1320.907348632812	1083.374389648438	40.44747161865234	1106.469970703125	1074.7890625	22.41747093200684	1095.126708984375	1162.633544921875	126.5972061157227	863.5433349609375	1067.212036132812	32.72717666625977	852.005859375	1061.73095703125	34.080810546875	995.76708984375	1060.468627929688	130.3779296875	679.63623046875	1094.010009765625	47.27693176269531	779.681884765625	1061.202392578125	118.8413543701172	783.48291015625	1047.365478515625	196.2579956054688	1477.563720703125	1493.47607421875	181.160888671875	1418.364501953125	1569.003662109375	139.4949035644531	1142.753662109375	1653.112182617188	114.51171875	1126.139038085938	1560.5107421875	238.0123443603516	895.1942138671875	1638.28369140625	172.3251342773438	896.0296020507812	1698.339721679688	157.4905090332031	1070.032592773438	1674.895385742188	215.5874328613281	706.5011596679688	1628.049926757812	249.7413635253906	798.1743774414062	1651.613891601562	186.5445251464844	809.924072265625	1699.96728515625	226.1007537841797	1657.948608398438	1381.642333984375	297.6017761230469	1675.6455078125	1176.6767578125	368.7870788574219	1682.585205078125	1284.659545898438	144.5770721435547	1657.992309570312	1270.904174804688	93.78012847900391	977.38671875	1155.069091796875	203.4974975585938	988.4057006835938	1512.531372070312	277.8707580566406	1012.269226074219	1448.292846679688	226.1271820068359	1011.635803222656	1196.64501953125	322.6705627441406	520.5679931640625	1119.5947265625	246.5093536376953	645.9840698242188	1112.680419921875	427.2367553710938	53.87160110473633	1099.837158203125	366.4755249023438	293.2518615722656	1095.26220703125	610.283203125	143.3390197753906	1028.6591796875	593.7225341796875	123.2282104492188	1091.834716796875	501.7944641113281	84.15056610107422	1019.023803710938	414.300537109375	41.94731140136719	1181.714965820312	117.9188461303711	497.3111572265625	1487.089477539062	222.4440765380859	754.420166015625	1507.828735351562	-96.42275238037109	43.16793441772461	1493.717407226562	94.23536682128906	375.6626892089844	1472.967651367188	126.7378463745117	45.58349990844727	1464.678955078125	73.95341491699219	47.51452255249023	1420.07470703125	14.35672569274902	37.95976638793945	1536.511474609375	-145.77978515625	47.16974258422852	1423.096557617188	
102	1.01	40.54196548461914	1032.779174804688	1410.728515625	18.74385643005371	1034.2958984375	1290.934326171875	33.04572296142578	1071.556518554688	1355.919189453125	311.4012451171875	1255.510864257812	1305.565673828125	15.50303077697754	1239.00732421875	1358.112670898438	110.1230621337891	1498.218872070312	1322.660766601562	295.1975708007812	1372.427856445312	1294.918090820312	43.90998077392578	1335.831665039062	1450.380249023438	80.96833801269531	1471.49658203125	1227.401977539062	139.6058349609375	1446.181640625	1136.9638671875	72.50957489013672	1318.619750976562	1080.672729492188	44.5125846862793	1104.381103515625	1072.505126953125	27.23748016357422	1093.156982421875	1160.592895507812	128.486083984375	860.7252807617188	1064.607299804688	34.69012832641602	850.083251953125	1060.177612304688	37.18864822387695	993.8143920898438	1058.422729492188	130.7095794677734	676.8057250976562	1091.638305664062	48.35547256469727	777.6466674804688	1059.345947265625	119.8515625	780.7055053710938	1044.929321289062	202.6796112060547	1475.985107421875	1489.92626953125	188.0531158447266	1416.828857421875	1565.643920898438	147.6387481689453	1141.212280273438	1650.297241210938	122.6835021972656	1123.983154296875	1557.810180664062	246.8466186523438	893.9257202148438	1635.816284179688	181.3195953369141	894.7474365234375	1696.065551757812	165.9267425537109	1068.622192382812	1672.172485351562	225.0911102294922	705.2058715820312	1626.310791015625	258.9510192871094	797.0469360351562	1649.477905273438	195.8328857421875	808.684814453125	1697.920043945312	231.4679260253906	1655.767822265625	1378.11328125	302.3589172363281	1674.404663085938	1173.078369140625	373.8202209472656	1681.358764648438	1280.868408203125	149.7051239013672	1655.798828125	1267.71826171875	99.75120544433594	975.1084594726562	1152.720825195312	209.9184722900391	986.8790893554688	1510.034423828125	284.2786560058594	1010.626708984375	1445.696655273438	232.4310760498047	1009.626220703125	1193.952758789062	328.7245788574219	518.8978271484375	1117.381225585938	252.3487243652344	643.573486328125	1110.459106445312	439.6807861328125	54.15293121337891	1094.993896484375	375.203857421875	292.7173156738281	1091.917114257812	620.3217163085938	146.5500640869141	1021.319580078125	605.0169677734375	125.9202728271484	1084.627075195312	512.4996948242188	85.84437561035156	1013.132568359375	428.1942443847656	41.79085922241211	1176.996337890625	122.692512512207	496.1056213378906	1485.709838867188	228.1147766113281	752.968994140625	1505.774047851562	-96.16641235351562	43.6945915222168	1493.525512695312	97.83984375	374.44970703125	1472.0859375	126.9116592407227	45.62310409545898	1464.883056640625	74.10915374755859	47.64587783813477	1420.206787109375	14.36201190948486	37.84487915039062	1536.631958007812	-145.6884307861328	48.21317291259766	1422.99169921875	
103	1.02	47.04915237426758	1030.969360351562	1408.0703125	25.25806045532227	1032.185791015625	1288.288818359375	39.41875076293945	1069.382690429688	1353.296508789062	317.6167907714844	1253.85009765625	1301.916137695312	21.81832504272461	1237.077392578125	1355.39404296875	116.1002960205078	1496.369140625	1319.188598632812	301.2743225097656	1370.71435546875	1291.050537109375	50.34274291992188	1334.181274414062	1447.40966796875	86.68614196777344	1469.415405273438	1224.064575195312	144.9647216796875	1443.962890625	1133.496459960938	77.47063446044922	1316.343139648438	1077.800048828125	48.76835632324219	1102.31787109375	1070.076538085938	32.2591667175293	1091.20068359375	1158.392700195312	130.5858001708984	857.95068359375	1061.918701171875	36.8591194152832	848.2086181640625	1058.540405273438	40.5008430480957	991.8812866210938	1056.258911132812	131.2301483154297	674.0330200195312	1089.24267578125	49.6417121887207	775.6583862304688	1057.419677734375	121.0712738037109	777.9725952148438	1042.43603515625	209.1625366210938	1474.4736328125	1486.212768554688	194.9878997802734	1415.358154296875	1562.11474609375	155.8325805664062	1139.710327148438	1647.248046875	130.9709167480469	1121.856201171875	1554.82763671875	255.8546600341797	892.7522583007812	1633.130737304688	190.4571990966797	893.5283813476562	1693.533203125	174.4308319091797	1067.2421875	1669.216918945312	234.8817901611328	704.0040893554688	1624.309448242188	268.3774719238281	796.013671875	1647.11376953125	205.2971801757812	807.5	1695.606323242188	236.8355560302734	1653.626831054688	1374.401123046875	307.2365112304688	1673.242065429688	1169.355590820312	378.9183654785156	1680.20263671875	1276.987670898438	154.9105377197266	1653.66357421875	1264.338989257812	106.0622634887695	972.9180908203125	1150.178100585938	216.4212951660156	985.3765258789062	1507.418579101562	290.8165588378906	1008.996154785156	1443.026123046875	238.9747924804688	1007.682861328125	1191.167236328125	335.0417175292969	517.22314453125	1114.906616210938	258.5594787597656	641.3038330078125	1107.969848632812	451.0038452148438	54.09099578857422	1090.662109375	383.5238037109375	291.9345092773438	1088.685424804688	629.3248901367188	148.812744140625	1014.19873046875	615.298828125	127.8434295654297	1077.670166015625	522.0571899414062	86.84223937988281	1007.660339355469	441.0196838378906	41.47806549072266	1172.786743164062	127.5421752929688	494.9615478515625	1484.328125	233.8589019775391	751.5684204101562	1503.6953125	-95.88174438476562	44.35094451904297	1493.356079101562	101.517707824707	373.2987976074219	1471.215087890625	127.0994186401367	45.74679946899414	1465.134033203125	74.30025482177734	47.84675598144531	1420.36572265625	14.37189292907715	37.72910308837891	1536.7421875	-145.5811614990234	49.51033782958984	1422.9052734375	
